<svg width="18" height="27" viewBox="0 0 18 27" fill="none" xmlns="http://www.w3.org/2000/svg">
<path d="M16.6107 12H10.8595V16.5753H7.29221V12H1.38928C0.624874 12 0 12.5157 0 13.1577V25.8423C0 26.4793 0.618807 27 1.38928 27H16.6107C17.3751 27 18 26.4843 18 25.8423V13.1577C18 12.5207 17.3812 12 16.6107 12Z" fill="#D5D5D5"/>
<path d="M8.63602 8.85808C8.82566 9.09666 9.18659 9.09666 9.37624 8.85808L12.4044 5.0102C12.6491 4.70432 12.4289 4.25163 12.0373 4.25163H10.8383V0.305873C10.8383 0.134584 10.7037 0 10.5324 0H7.4737C7.30241 0 7.16783 0.134584 7.16783 0.305873V4.24551H5.97492C5.58341 4.24551 5.36318 4.69821 5.60788 5.00408L8.63602 8.85808Z" fill="#D5D5D5"/>
</svg>
